<?xml version="1.0" encoding="UTF-8" standalone="no"?>
<!-- Created with Inkscape (http://www.inkscape.org/) -->

<svg
   width="215mm"
   height="280mm"
   viewBox="0 0 215 280"
   version="1.1"
   id="svg1"
   xml:space="preserve"
   inkscape:version="1.4.2 (f4327f4, 2025-05-13)"
   sodipodi:docname="45x45_id35_apriltag.svg"
   xmlns:inkscape="http://www.inkscape.org/namespaces/inkscape"
   xmlns:sodipodi="http://sodipodi.sourceforge.net/DTD/sodipodi-0.dtd"
   xmlns:xlink="http://www.w3.org/1999/xlink"
   xmlns="http://www.w3.org/2000/svg"
   xmlns:svg="http://www.w3.org/2000/svg"><sodipodi:namedview
     id="namedview1"
     pagecolor="#505050"
     bordercolor="#ffffff"
     borderopacity="1"
     inkscape:showpageshadow="0"
     inkscape:pageopacity="0"
     inkscape:pagecheckerboard="1"
     inkscape:deskcolor="#505050"
     inkscape:document-units="mm"
     inkscape:zoom="0.5"
     inkscape:cx="295"
     inkscape:cy="513"
     inkscape:window-width="1920"
     inkscape:window-height="1009"
     inkscape:window-x="-8"
     inkscape:window-y="-8"
     inkscape:window-maximized="1"
     inkscape:current-layer="layer1" /><defs
     id="defs1" /><g
     inkscape:label="Camada 1"
     inkscape:groupmode="layer"
     id="layer1"><g
       id="use1"
       inkscape:tile-x0="0.0039166063"
       inkscape:tile-y0="0.0032743896"
       transform="translate(7.9191388,20.800471)"
       inkscape:tile-cx="23.571133"
       inkscape:tile-cy="23.544512"
       inkscape:tile-w="47.134434"
       inkscape:tile-h="47.082475"><g
         id="g200"
         transform="matrix(0.4605971,0,0,0.46008936,42.866243,35.112581)"
         style="fill:none;stroke:#000000;stroke-width:2.33333;stroke-dasharray:none;stroke-opacity:1"><path
           style="fill:none;stroke:#000000;stroke-width:2.33333;stroke-dasharray:none;stroke-opacity:1"
           d="M -89.553906,-73.197028 V 26.802973 h 100 V -73.197028 Z"
           id="path200" /></g><g
         id="g203"
         transform="matrix(0.44999999,0,0,0.44999999,2.1530366,2.2244921)"><path
           style="fill:#ffffff;stroke:none"
           d="M 0,-0.58796297 V 99.412037 H 100 V -0.58796297 Z"
           id="path201" /><path
           style="fill:#000000;stroke:none"
           d="m 10,9.412037 v 80 h 80 v -80 z"
           id="path202" /><path
           style="fill:#ffffff;stroke:none"
           d="m 30,19.412037 v 10 h 20 v 20 h 10 v -10 h 10 v 10 h 10 v -10 H 70 v -20 H 60 v 10 H 50 v -10 H 30 m -10,20 v 20 h 20 v -20 H 20 m 0,30 v 10 h 10 v -10 H 20 m 20,0 v 10 h 10 v -10 H 40 m 20,0 v 10 h 10 v -10 z"
           id="path203" /></g></g><use
       x="0"
       y="0"
       inkscape:tiled-clone-of="#use1"
       xlink:href="#use1"
       id="use324" /><use
       x="0"
       y="0"
       inkscape:tiled-clone-of="#use1"
       xlink:href="#use1"
       transform="translate(0,49.436599)"
       id="use325" /><use
       x="0"
       y="0"
       inkscape:tiled-clone-of="#use1"
       xlink:href="#use1"
       transform="translate(0,98.873198)"
       id="use326" /><use
       x="0"
       y="0"
       inkscape:tiled-clone-of="#use1"
       xlink:href="#use1"
       transform="translate(0,148.3098)"
       id="use327" /><use
       x="0"
       y="0"
       inkscape:tiled-clone-of="#use1"
       xlink:href="#use1"
       transform="translate(0,197.7464)"
       id="use328" /><use
       x="0"
       y="0"
       inkscape:tiled-clone-of="#use1"
       xlink:href="#use1"
       transform="translate(49.491155)"
       id="use329" /><use
       x="0"
       y="0"
       inkscape:tiled-clone-of="#use1"
       xlink:href="#use1"
       transform="translate(49.491155,49.436599)"
       id="use330" /><use
       x="0"
       y="0"
       inkscape:tiled-clone-of="#use1"
       xlink:href="#use1"
       transform="translate(49.491155,98.873198)"
       id="use331" /><use
       x="0"
       y="0"
       inkscape:tiled-clone-of="#use1"
       xlink:href="#use1"
       transform="translate(49.491155,148.3098)"
       id="use332" /><use
       x="0"
       y="0"
       inkscape:tiled-clone-of="#use1"
       xlink:href="#use1"
       transform="translate(49.491155,197.7464)"
       id="use333" /><use
       x="0"
       y="0"
       inkscape:tiled-clone-of="#use1"
       xlink:href="#use1"
       transform="translate(98.98231)"
       id="use334" /><use
       x="0"
       y="0"
       inkscape:tiled-clone-of="#use1"
       xlink:href="#use1"
       transform="translate(98.98231,49.436599)"
       id="use335" /><use
       x="0"
       y="0"
       inkscape:tiled-clone-of="#use1"
       xlink:href="#use1"
       transform="translate(98.98231,98.873198)"
       id="use336" /><use
       x="0"
       y="0"
       inkscape:tiled-clone-of="#use1"
       xlink:href="#use1"
       transform="translate(98.98231,148.3098)"
       id="use337" /><use
       x="0"
       y="0"
       inkscape:tiled-clone-of="#use1"
       xlink:href="#use1"
       transform="translate(98.98231,197.7464)"
       id="use338" /><use
       x="0"
       y="0"
       inkscape:tiled-clone-of="#use1"
       xlink:href="#use1"
       transform="translate(148.47347)"
       id="use339" /><use
       x="0"
       y="0"
       inkscape:tiled-clone-of="#use1"
       xlink:href="#use1"
       transform="translate(148.47347,49.436599)"
       id="use340" /><use
       x="0"
       y="0"
       inkscape:tiled-clone-of="#use1"
       xlink:href="#use1"
       transform="translate(148.47347,98.873198)"
       id="use341" /><use
       x="0"
       y="0"
       inkscape:tiled-clone-of="#use1"
       xlink:href="#use1"
       transform="translate(148.47347,148.3098)"
       id="use342" /><use
       x="0"
       y="0"
       inkscape:tiled-clone-of="#use1"
       xlink:href="#use1"
       transform="translate(148.47347,197.7464)"
       id="use343" /></g></svg>
